<?xml version="1.0" encoding="UTF-8"?><svg xmlns="http://www.w3.org/2000/svg" xmlns:xlink="http://www.w3.org/1999/xlink" width="1190.25" zoomAndPan="magnify" viewBox="0 0 1190.25 1683.749945" height="1683.749945" preserveAspectRatio="xMidYMid meet" version="1.0"><path fill="rgb(0%, 0%, 0%)" d="M 979.203125 904.527344 C 985.285156 897.917969 989.253906 888.929688 988.988281 878.089844 C 988.195312 639.390625 982.113281 401.222656 987.667969 162.257812 C 988.195312 133.179688 956.992188 119.433594 933.457031 131.066406 C 844.339844 174.683594 748.347656 206.140625 656.058594 242.617188 C 569.320312 277.246094 483.113281 312.140625 397.4375 349.148438 C 385.273438 337.515625 361.207031 341.746094 360.941406 363.683594 C 359.355469 501.40625 366.761719 639.128906 376.546875 776.320312 C 385.007812 895.007812 391.617188 1017.132812 410.128906 1135.558594 C 320.21875 1140.582031 219.203125 1160.140625 158.910156 1227.019531 C 93.328125 1299.449219 126.914062 1403.597656 214.972656 1437.964844 C 306.203125 1473.648438 424.9375 1418.402344 481 1344.125 C 507.707031 1308.964844 522.515625 1263.5 504.535156 1220.941406 C 500.832031 1212.480469 496.335938 1204.550781 490.78125 1197.679688 C 495.808594 1190.804688 498.714844 1182.609375 498.1875 1174.417969 C 485.757812 1039.339844 460.109375 904.789062 444.769531 769.976562 C 438.6875 716.578125 433.136719 662.917969 428.109375 609.523438 C 463.808594 597.363281 497.660156 578.859375 532.035156 563.792969 C 575.140625 544.757812 618.507812 527.046875 662.40625 509.867188 C 703.394531 493.742188 744.644531 478.671875 786.425781 464.664062 C 826.359375 451.183594 868.402344 441.664062 907.277344 425.542969 C 904.101562 554.273438 902.78125 683.007812 906.484375 811.214844 C 831.648438 787.421875 747.554688 804.871094 693.34375 870.425781 C 622.210938 956.335938 638.078125 1087.449219 750.464844 1127.363281 C 851.480469 1163.3125 980.261719 1096.964844 997.980469 988.058594 C 1003.003906 954.484375 995.070312 926.464844 979.203125 904.527344 Z M 228.988281 1324.296875 C 228.988281 1323.503906 229.25 1322.710938 229.25 1321.917969 C 231.632812 1340.421875 239.566406 1357.867188 253.050781 1370.820312 C 236.390625 1366.0625 225.8125 1352.316406 228.988281 1324.296875 Z M 445.828125 1298.65625 C 450.589844 1289.140625 454.820312 1279.359375 457.464844 1269.578125 C 455.878906 1279.886719 451.644531 1289.40625 445.828125 1298.65625 Z M 885.328125 350.203125 C 840.902344 357.605469 796.210938 377.960938 754.164062 393.554688 C 711.855469 409.417969 669.808594 426.335938 628.027344 444.308594 C 560.332031 473.386719 484.4375 504.050781 421.765625 546.609375 C 416.476562 491.625 411.449219 436.378906 405.898438 381.394531 C 498.714844 352.847656 590.476562 321.917969 682.238281 290.726562 C 758.925781 264.558594 835.613281 234.160156 913.359375 210.632812 C 911.507812 258.214844 909.921875 306.058594 908.597656 353.640625 C 901.722656 350.203125 893.527344 348.617188 885.328125 350.203125 Z M 908.335938 1012.375 C 902.253906 1020.835938 894.054688 1028.5 884.535156 1035.109375 C 901.457031 1017.925781 914.152344 997.574219 919.175781 976.425781 C 920.761719 974.046875 922.085938 971.402344 923.40625 969.023438 C 923.9375 982.503906 919.175781 997.574219 908.335938 1012.375 Z M 908.335938 1012.375 " fill-opacity="1" fill-rule="nonzero"/></svg>